<svg id="lilly-arms" xmlns="http://www.w3.org/2000/svg" viewBox="0 0 250 250"><linearGradient id="red" gradientUnits="userSpaceOnUse" x1="0" y1="0" x2="0" y2="250"><stop  offset="0" style="stop-color:#770000"/><stop  offset="1" style="stop-color:#AA0000"/></linearGradient>
<circle cx="125" cy="125" r="120.8" fill="url(#red)" stroke="#0002" stroke-width="8" /><path fill="#fff" d="M125,117.1c22.5,0,18.2-41.6,40.7-41.6c0-9.5-16.5-18.2-27.7-3.5c0-15.6-0.9-22.5-13-32.9c-12.1,10.4-13,17.3-13,32.9c-11.3-14.7-27.7-6.1-27.7,3.5C106.8,75.5,102.5,117.1,125,117.1z M78.4,184.9c22.5,0,18.2-41.6,40.7-41.6c0-9.5-16.5-18.2-27.7-3.5c0-15.6-0.9-22.5-13-32.9c-12.1,10.4-13,17.3-13,32.9c-11.3-14.7-27.7-6.1-27.7,3.5C60.2,143.3,55.9,184.9,78.4,184.9z M171.6,184.9c22.5,0,18.2-41.6,40.7-41.6c0-9.5-16.5-18.2-27.7-3.5c0-15.6-0.9-22.5-13-32.9c-12.1,10.4-13,17.3-13,32.9c-11.3-14.7-27.7-6.1-27.7,3.5C153.4,143.3,149,184.9,171.6,184.9z"/></svg>
