<svg id="lilly-arms-swan" xmlns="http://www.w3.org/2000/svg" viewBox="0 0 250 250"><linearGradient id="red" gradientUnits="userSpaceOnUse" x1="0" y1="0" x2="0" y2="250"><stop  offset="0" style="stop-color:#770000"/><stop  offset="1" style="stop-color:#AA0000"/></linearGradient><rect width="250" height="250" fill="url(#red)" /><path fill="#fff" d="M78.4,164c22.5,0,18.2-41.6,40.7-41.6c0-9.5-16.5-18.2-27.7-3.5c0-15.6-0.9-22.5-13-32.9c-12.1,10.4-13,17.3-13,32.9c-11.3-14.7-27.7-6.1-27.7,3.5C60.2,122.4,55.9,164,78.4,164zM171.6,164c22.5,0,18.2-41.6,40.7-41.6c0-9.5-16.5-18.2-27.7-3.5c0-15.6-0.9-22.5-13-32.9c-12.1,10.4-13,17.3-13,32.9c-11.3-14.7-27.7-6.1-27.7,3.5C153.4,122.4,149,164,171.6,164zM125,229.4c22.5,0,18.2-41.6,40.7-41.6c0-9.5-16.5-18.2-27.7-3.5c0-15.6-0.9-22.5-13-32.9c-12.1,10.4-13,17.3-13,32.9c-11.3-14.7-27.7-6.1-27.7,3.5C106.8,187.9,102.5,229.4,125,229.4zM101.5,24.8c-3.3,2.3-5.1,6.5-3.1,11.3c0.3,0.8-0.1,0.2-0.1,2.1c0,1.6,0.1,3.9,0.1,5.6c0,0.9-0.7,1.8-0.3,2.7c0.1,0.3,0.9,0.3,1.2,0.3c1-0.2,1.5-1.4,2-2.2c1.6-2.6,5.9-6.8,6.9-10.1c0.3-1,1.7-2.7,3.2-1.8c0.7,0.4,0.8,1.1,0.7,1.8c-0.3,1.2-0.8,2.3-1.4,3.6c0,0.1-0.1,0.2-0.1,0.3C105,49.5,90.7,63.4,95.6,77c2.2,6.1,6.8,9.7,12.8,10.4c11.7,1.4,47,0,47,0c-0.8-5.4-4.6-10.9-12.9-13.5c14.7-5.3,20.8-8.5,26.5-23.4c-14.4,4.2-31-11.3-57.6,9.3c16.3-27.3,11-38.1-0.7-38C105.8,21.8,103.5,23.4,101.5,24.8z"/></svg>
