<svg xmlns="http://www.w3.org/2000/svg" xmlns:xlink="http://www.w3.org/1999/xlink" viewBox="-1 0 70 64"><defs><linearGradient id="a" x1="18.775" y1="3.727" x2="3.167" y2="17.272" gradientUnits="userSpaceOnUse"><stop offset="0" stop-color="#fcc"/><stop offset="0.506"/><stop offset="1" stop-color="#600"/></linearGradient><linearGradient id="b" x1="44.83" y1="22.435" x2="29.222" y2="35.98" gradientUnits="userSpaceOnUse"><stop offset="0" stop-color="#fff"/><stop offset="0.506" stop-color="#fff"/><stop offset="1" stop-color="#fcc"/></linearGradient><linearGradient id="c" x1="40.019" y1="13.242" x2="24.412" y2="26.787" gradientUnits="userSpaceOnUse"><stop offset="0" stop-color="#fcc"/><stop offset="0.506" stop-color="#f00"/><stop offset="1" stop-color="#600"/></linearGradient><linearGradient id="d" x1="27.461" y1="25.641" x2="11.853" y2="39.186" xlink:href="#c"/><linearGradient id="e" x1="36.283" y1="34.029" x2="20.676" y2="47.574" xlink:href="#b"/><linearGradient id="f" x1="31.059" y1="13.242" x2="15.452" y2="26.787" xlink:href="#b"/><linearGradient id="g" x1="44.306" y1="28.26" x2="28.698" y2="41.804" xlink:href="#c"/><linearGradient id="h" x1="65.952" y1="13.351" x2="50.345" y2="26.896" xlink:href="#a"/><linearGradient id="i" x1="21.778" y1="44.44" x2="6.17" y2="57.985" xlink:href="#a"/></defs><g stroke="#000" stroke-width="0.75"><ellipse cx="10.661" cy="10.768" rx="10.286" ry="10.393" fill="url(#a)"/><ellipse cx="36.716" cy="29.477" rx="10.286" ry="10.393" fill="url(#b)"/><ellipse cx="31.906" cy="20.283" rx="10.286" ry="10.393" fill="url(#c)"/><ellipse cx="19.347" cy="32.682" rx="10.286" ry="10.393" fill="url(#d)"/><ellipse cx="28.17" cy="41.07" rx="10.286" ry="10.393" fill="url(#e)"/><ellipse cx="22.946" cy="20.283" rx="10.286" ry="10.393" fill="url(#f)"/><ellipse cx="36.192" cy="35.301" rx="10.286" ry="10.393" fill="url(#g)"/><ellipse cx="57.839" cy="20.392" rx="10.286" ry="10.393" fill="url(#h)"/><ellipse cx="13.664" cy="51.482" rx="10.286" ry="10.393" fill="url(#i)"/></g><g fill="#fff" stroke-width="0"><ellipse cx="18.475" cy="46.857" rx="1.74" ry="1.758" /><ellipse cx="62.649" cy="15.768" rx="1.74" ry="1.758" /><ellipse cx="41.003" cy="30.677" rx="1.74" ry="1.758" /><ellipse cx="36.716" cy="15.659" rx="1.74" ry="1.758" /><ellipse cx="15.472" cy="6.144" rx="1.74" ry="1.758" /></g></svg>