<svg version="1.0" xmlns="http://www.w3.org/2000/svg"
 width="1592.000000pt" height="1592.000000pt" viewBox="0 0 1592.000000 1592.000000"
 preserveAspectRatio="xMidYMid meet">
<g transform="translate(0.000000,1592.000000) scale(0.100000,-0.100000)"
fill="#000000" stroke="none">
<path d="M0 7960 l0 -7960 7960 0 7960 0 0 7960 0 7960 -7960 0 -7960 0 0
-7960z m8095 5024 c552 -493 930 -955 1164 -1421 292 -584 410 -1299 411
-2481 0 -181 4 -312 9 -310 5 2 40 41 77 88 37 47 122 141 189 209 313 322
669 543 1045 652 195 56 313 72 545 73 213 1 266 -4 445 -46 345 -79 643 -238
889 -473 252 -241 407 -524 446 -815 8 -58 15 -117 15 -131 l0 -27 -127 -6
c-412 -22 -783 -162 -1118 -420 -334 -257 -654 -687 -971 -1301 -119 -231
-153 -304 -474 -1025 -330 -742 -339 -762 -447 -970 -339 -655 -621 -1040
-963 -1314 -275 -220 -550 -346 -898 -413 -124 -24 -160 -26 -372 -26 -214 0
-248 2 -378 27 -343 65 -615 191 -892 412 -341 272 -623 657 -963 1314 -108
208 -117 228 -447 970 -321 721 -355 794 -474 1025 -484 938 -960 1429 -1581
1628 -146 47 -350 84 -507 93 -147 7 -135 -7 -118 134 41 343 230 666 542 926
243 202 524 336 848 404 440 91 902 24 1321 -191 131 -67 321 -193 444 -294
116 -95 324 -308 417 -425 34 -43 66 -76 70 -74 4 3 8 143 8 312 1 1180 120
1893 415 2481 169 338 394 647 718 986 191 200 553 542 577 544 3 1 64 -51
135 -115z"/>
</g>
</svg>
